Coordinates
version=1
nRows=19
nColumns=24
inDegrees=yes

Units are S.I. units (second, meters, Newtons, ...)
Angles are in degrees.

endheader
time	pelvis_tilt	pelvis_list	pelvis_rotation	pelvis_tx	pelvis_ty	pelvis_tz	hip_flexion_r	hip_adduction_r	hip_rotation_r	knee_angle_r	ankle_angle_r	subtalar_angle_r	mtp_angle_r	hip_flexion_l	hip_adduction_l	hip_rotation_l	knee_angle_l	ankle_angle_l	subtalar_angle_l	mtp_angle_l	lumbar_extension	lumbar_bending	lumbar_rotation
      3.51500000	     -1.75484190	      3.29369831	    358.83666338	     -0.25674407	      1.39435605	     -0.99830196	     26.49533553	     -1.39730786	      4.05980319	    -31.90286681	      3.01639825	     -6.13024701	     15.25554785	      0.53995978	      7.93376552	      2.85727524	     -8.30592728	      3.74925946	     -2.14255905	     16.12377628	    -13.54266023	      3.14407859	     -1.99550848
      3.52000000	     -1.74945692	      3.32634119	    358.94982370	     -0.25188819	      1.39390338	     -0.99829177	     26.29072348	     -1.52235571	      4.16554759	    -29.84439679	      2.53082054	     -6.35554985	     15.05592866	      0.16626155	      7.97112259	      2.99488018	     -8.20570018	      4.00820982	     -2.03477979	     16.07841773	    -13.56036768	      3.06909234	     -1.96129264
      3.52500000	     -1.76124678	      3.39027424	    359.05758227	     -0.24699841	      1.39337980	     -0.99824695	     26.08300531	     -1.68257281	      4.29282004	    -27.75114431	      1.98698779	     -6.61170062	     14.89005448	     -0.19597343	      8.03908574	      3.11037196	     -8.09335449	      4.25666681	     -1.92198376	     16.00933361	    -13.55318675	      2.95389092	     -1.92603719
      3.53000000	     -1.78980808	      3.46874454	    359.17832944	     -0.24210657	      1.39277022	     -0.99821286	     25.86874050	     -1.86713848	      4.45105704	    -25.62791051	      1.42546084	     -6.87476016	     14.74384693	     -0.53223358	      8.12308867	      3.25954792	     -7.99818530	      4.51738224	     -1.82890533	     15.93552699	    -13.53362902	      2.82454421	     -1.89397750
      3.53500000	     -1.85366122	      3.56790171	    359.30903501	     -0.23719947	      1.39208130	     -0.99818864	     25.67322484	     -2.08330020	      4.63136577	    -23.48815086	      0.84233023	     -7.14659416	     14.61550329	     -0.82321663	      8.22976330	      3.42506084	     -7.91969918	      4.77313521	     -1.75276707	     15.85003520	    -13.47486946	      2.67523513	     -1.86134533
      3.54000000	     -1.89473738	      3.68838692	    359.41949833	     -0.23228110	      1.39135913	     -0.99813210	     25.43782100	     -2.32094690	      4.84422164	    -21.33656748	      0.22446039	     -7.42804731	     14.58325145	     -1.14472256	      8.35755205	      3.54360331	     -7.83168122	      5.01137776	     -1.65119636	     15.70157622	    -13.44064004	      2.50075869	     -1.79622782
      3.54500000	     -1.98353438	      3.82315744	    359.54410769	     -0.22735317	      1.39053895	     -0.99809512	     25.24718298	     -2.58560410	      5.06358104	    -19.20485627	     -0.37746677	     -7.70547601	     14.56641085	     -1.40869369	      8.50216224	      3.71813188	     -7.75839982	      5.29331618	     -1.58964453	     15.55323778	    -13.36008102	      2.31346258	     -1.72852514
      3.55000000	     -2.10228315	      3.97365421	    359.69293348	     -0.22240852	      1.38967090	     -0.99809350	     25.07230116	     -2.88560555	      5.27136727	    -17.08393047	     -0.96198481	     -7.95141745	     14.48817714	     -1.63277191	      8.66519009	      3.91989010	     -7.70217869	      5.51964506	     -1.57562704	     15.43837245	    -13.24180554	      2.11625812	     -1.72798633
      3.55500000	     -2.20611752	      4.12347383	    359.84730374	     -0.21742171	      1.38877507	     -0.99811372	     24.86310347	     -3.19764557	      5.46213674	    -14.97515704	     -1.53255034	     -8.18073568	     14.42816877	     -1.88494701	      8.82797140	      4.15163833	     -7.63157731	      5.77330862	     -1.58362822	     15.32839658	    -13.13642750	      1.92770642	     -1.72045860
      3.56000000	     -2.28282298	      4.28353319	    359.98705260	     -0.21240538	      1.38786475	     -0.99811025	     24.61086845	     -3.52157500	      5.66860422	    -12.88073506	     -2.13277373	     -8.42774602	     14.57138793	     -2.16961432	      9.00008902	      4.35727237	     -7.56308048	      6.00830076	     -1.57159296	     15.12537763	    -13.07118034	      1.72564207	     -1.62907426
      3.56500000	     -2.39650483	      4.45820676	    360.16358133	     -0.20733419	      1.38688161	     -0.99816122	     24.39421444	     -3.88286972	      5.80827912	    -10.85158773	     -2.67461757	     -8.58258496	     14.56714799	     -2.41393278	      9.18973626	      4.61796243	     -7.50402082	      6.22349540	     -1.61952300	     14.99256170	    -12.95042326	      1.52163815	     -1.66085721
      3.57000000	     -2.48222893	      4.63784716	    360.33875228	     -0.20218668	      1.38588463	     -0.99820638	     24.14009925	     -4.25372250	      5.91099220	     -8.87673345	     -3.20576679	     -8.71587087	     14.70250303	     -2.70581363	      9.38277103	      4.90410399	     -7.42808017	      6.45246015	     -1.67987234	     14.80204548	    -12.84811518	      1.30807202	     -1.60410453
      3.57500000	     -2.61011791	      4.82018625	    360.54273211	     -0.19701107	      1.38479770	     -0.99828715	     23.95046108	     -4.63777542	      5.94064298	     -7.03052355	     -3.63403677	     -8.70841690	     14.67160746	     -2.93893560	      9.57808659	      5.21491519	     -7.38394140	      6.68336316	     -1.73950981	     14.71200349	    -12.70108209	      1.10714494	     -1.63018961
      3.58000000	     -2.67930475	      5.01414285	    360.72139834	     -0.19178032	      1.38374515	     -0.99830919	     23.71368643	     -5.01758585	      5.92699055	     -5.29508684	     -4.05501879	     -8.67715074	     14.74552789	     -3.26095588	      9.78227332	      5.50737945	     -7.30133198	      6.86358351	     -1.85775239	     14.50182136	    -12.60751193	      0.88123206	     -1.61926728
      3.58500000	     -2.76526661	      5.20342036	    360.90569657	     -0.18652595	      1.38264795	     -0.99831212	     23.53021996	     -5.38409171	      5.86115908	     -3.72744438	     -4.36466143	     -8.55491945	     14.87077207	     -3.56035281	      9.97796746	      5.83735562	     -7.23636714	      7.08114190	     -1.96509641	     14.26924422	    -12.50771767	      0.66104760	     -1.56540903
      3.59000000	     -2.85601559	      5.36739933	    361.10113168	     -0.18121458	      1.38155455	     -0.99829774	     23.37845537	     -5.71331506	      5.70587961	     -2.32820349	     -4.60114479	     -8.36485071	     14.87375682	     -3.85430638	     10.14068946	      6.14648307	     -7.17977175	      7.29633009	     -2.05057762	     14.11169755	    -12.38575334	      0.46794818	     -1.55718371
      3.59500000	     -2.89888865	      5.50473158	    361.29293057	     -0.17588490	      1.38051771	     -0.99826403	     23.20505099	     -5.99896796	      5.49774650	     -1.10288976	     -4.75512928	     -8.12492005	     14.85520406	     -4.20271096	     10.26920627	      6.46725297	     -7.12390810	      7.50852011	     -2.13531295	     13.94725484	    -12.32307294	      0.31526530	     -1.52063627
      3.60000000	     -2.92377297	      5.60777692	    361.47864245	     -0.17050844	      1.37951754	     -0.99818339	     23.04876898	     -6.22611296	      5.22850550	     -0.07160030	     -4.82172128	     -7.84740405	     14.81582681	     -4.57575697	     10.35342026	      6.78076990	     -7.06330787	      7.73124225	     -2.21601474	     13.76880956	    -12.27192913	      0.19315807	     -1.47115845
      3.60500000	     -2.94524969	      5.67362188	    361.65869998	     -0.16509059	      1.37856007	     -0.99806549	     22.93003602	     -6.39095369	      4.91056053	      0.75509390	     -4.82746447	     -7.57980066	     14.74205998	     -4.95301756	     10.39154741	      7.08486156	     -7.00399995	      7.97483716	     -2.28119647	     13.60429801	    -12.21704993	      0.10744590	     -1.41235452
